<svg width="36" height="36" viewBox="0 0 36 36" fill="none" xmlns="http://www.w3.org/2000/svg">
<path d="M33 11.5C33.0034 12.8199 32.6951 14.1219 32.1 15.3C31.3944 16.7117 30.3098 17.8992 28.9674 18.7293C27.6251 19.5594 26.0782 19.9994 24.5 20C23.1801 20.0034 21.8781 19.6951 20.7 19.1L15 21L16.9 15.3C16.3049 14.1219 15.9966 12.8199 16 11.5C16.0006 9.92176 16.4406 8.37485 17.2707 7.03255C18.1008 5.69025 19.2883 4.60557 20.7 3.9C21.8781 3.30493 23.1801 2.99656 24.5 3H25C27.0843 3.11499 29.053 3.99476 30.5291 5.47086C32.0052 6.94695 32.885 8.91565 33 11V11.5Z" stroke="white" stroke-width="2" stroke-linecap="round" stroke-linejoin="round"/>
<path d="M22 28.92V31.92C22.0011 32.1985 21.9441 32.4742 21.8325 32.7294C21.7209 32.9845 21.5573 33.2136 21.3521 33.4019C21.1469 33.5901 20.9046 33.7335 20.6408 33.8227C20.3769 33.9119 20.0974 33.9451 19.82 33.92C16.7428 33.5856 13.787 32.5342 11.19 30.85C8.77383 29.3147 6.72534 27.2662 5.19 24.85C3.49998 22.2412 2.44824 19.271 2.12 16.18C2.09501 15.9035 2.12788 15.6248 2.2165 15.3616C2.30513 15.0985 2.44757 14.8567 2.63477 14.6516C2.82196 14.4466 3.04981 14.2827 3.30379 14.1705C3.55778 14.0583 3.83234 14.0003 4.11 14H7.11C7.59531 13.9952 8.06579 14.1671 8.43376 14.4835C8.80173 14.8 9.04208 15.2395 9.11 15.72C9.23662 16.6801 9.47145 17.6227 9.81 18.53C9.94455 18.8879 9.97366 19.2769 9.89391 19.6509C9.81415 20.0249 9.62886 20.3681 9.36 20.64L8.09 21.91C9.51356 24.4136 11.5865 26.4865 14.09 27.91L15.36 26.64C15.6319 26.3711 15.9752 26.1859 16.3491 26.1061C16.7231 26.0263 17.1121 26.0555 17.47 26.19C18.3773 26.5286 19.3199 26.7634 20.28 26.89C20.7658 26.9585 21.2094 27.2032 21.5265 27.5775C21.8437 27.9518 22.0122 28.4296 22 28.92Z" stroke="white" stroke-width="2" stroke-linecap="round" stroke-linejoin="round"/>
</svg>
